<!-- Bubblemark -->
<svg width="200" height="100" viewBox="0 0 160 100" xmlns="http://www.w3.org/2000/svg" class="fish bubblemark">
    <!-- Tail -->
    <polygon points="20,50 5,35 5,65" fill="var(--tail-color, #00cccc)"/>

    <!-- Fins -->
    <path d="M50,30 Q65,5 80,30" fill="var(--fin-color, #33eeee)" />
    <path d="M50,70 Q65,95 80,70" fill="var(--fin-color, #33eeee)" />

    <!-- Body -->
    <path d="M20,50 Q60,15 140,30 Q180,50 140,70 Q60,85 20,50 Z" fill="var(--body-color, #00dddd)" />

    <!-- Polka dots -->
    <circle cx="60" cy="45" r="5" fill="var(--pattern-color, #ffffff)" />
    <circle cx="80" cy="55" r="6" fill="var(--pattern-color, #ffffff)" />
    <circle cx="100" cy="40" r="5" fill="var(--pattern-color, #ffffff)" />
    <circle cx="120" cy="60" r="4" fill="var(--pattern-color, #ffffff)" />

    <!-- Side fin -->
    <polygon points="85,50 95,45 95,55" fill="var(--side-fin-color, #00aaaa)" fill-opacity="0.6" />

    <!-- Eye -->
    <circle cx="150" cy="42" r="6" fill="white" />
    <circle cx="150" cy="42" r="3" fill="black" />
    <!-- Eye highlight -->
    <circle cx="152" cy="41" r="1" fill="white" />
</svg>